<?xml version="1.0" encoding="UTF-8"?> <svg xmlns="http://www.w3.org/2000/svg" width="300" height="51" viewBox="0 0 300 51" fill="none"><g clip-path="url(#clip0_1914_6978)"><path d="M39.7478 11.6031C39.0748 10.2514 38.246 8.96096 37.267 7.75392L36.1713 5.77373L36.06 6.38559L35.8264 7.67049L35.0198 12.087C38.5742 17.705 38.4296 24.9972 34.5971 30.4817C34.0464 31.266 33.429 32.0169 32.7282 32.7178C29.7189 35.727 25.8364 37.3345 21.8927 37.5515C21.5868 37.5681 21.2864 37.5793 20.9805 37.5793V41.9457C21.0305 41.9457 21.075 41.9457 21.1251 41.9457C26.4538 41.9123 31.7659 39.8654 35.8208 35.8104C35.9821 35.6491 36.1379 35.4767 36.2936 35.3098C42.4178 28.7796 43.5692 19.2569 39.7534 11.5975L39.7478 11.6031Z" fill="#0073FF"></path><path d="M30.3476 2.2027C22.4936 -1.7132 12.676 -0.406046 6.13471 6.13528C-2.04751 14.3175 -2.04751 27.6338 6.13471 35.816L9.22738 32.7233C2.7528 26.2432 2.74724 15.7025 9.22738 9.22795C14.8175 3.63778 23.4336 2.87574 29.8582 6.93626L36.177 5.77929L34.1968 4.68351C32.9898 3.70453 31.6993 2.87574 30.3532 2.2027H30.3476Z" fill="#0073FF"></path><path d="M19.7299 17.9275L11.2695 31.3439L24.5469 22.7445L32.7847 27.0219L28.6797 18.1055L32.7847 9.18901L23.8683 13.2885L14.9518 9.18901L19.7299 17.9275Z" fill="white"></path><path d="M64.4684 48.9098L62.5216 43.4197H61.4035L59.4678 48.8931L57.4376 43.4197H56.3418L58.906 50.178H60.0296L61.9653 44.5934L63.8955 50.178H65.0302L67.5611 43.4197H66.4987L64.4684 48.9098Z" fill="white"></path><path d="M74.7473 47.2522H78.2961V46.3789H74.7473V44.3153H79.0915V43.4197H73.7461V50.178H79.0971V49.2825H74.7473V47.2522Z" fill="white"></path><path d="M98.8699 44.421C98.5807 44.1095 98.2025 43.8647 97.7241 43.6867C97.2457 43.5087 96.6617 43.4197 95.9608 43.4197H93.252V50.178H95.9608C96.6339 50.178 97.2068 50.0834 97.6796 49.8999C98.1524 49.7163 98.5362 49.466 98.831 49.1434C99.1258 48.8263 99.3427 48.4592 99.4762 48.0476C99.6097 47.636 99.682 47.2133 99.682 46.7683C99.682 46.3233 99.6209 45.8894 99.4929 45.4889C99.3705 45.0884 99.1592 44.7269 98.8755 44.4154L98.8699 44.421ZM98.5362 47.6805C98.4472 47.9809 98.3026 48.2479 98.0968 48.487C97.891 48.7262 97.6184 48.9153 97.268 49.06C96.9231 49.2046 96.4781 49.2713 95.9441 49.2713H94.2476V44.3264H95.9441C96.4781 44.3264 96.9175 44.3932 97.268 44.5266C97.6128 44.6601 97.891 44.8437 98.0968 45.0773C98.3026 45.3109 98.4472 45.5724 98.5362 45.8616C98.6252 46.1509 98.6641 46.4568 98.6641 46.7683C98.6641 47.0798 98.6196 47.3746 98.5362 47.6749V47.6805Z" fill="white"></path><path d="M107.226 47.2522H110.775V46.3789H107.226V44.3153H111.564V43.4197H106.225V50.178H111.576V49.2825H107.226V47.2522Z" fill="white"></path><path d="M119.023 43.4197H118.027V50.178H123.006V49.2825H119.023V43.4197Z" fill="white"></path><path d="M130.443 43.4197H129.441V50.178H130.443V43.4197Z" fill="white"></path><path d="M139.938 48.9877L137.824 43.4197H136.729L139.365 50.178H140.511L143.125 43.4197H142.052L139.938 48.9877Z" fill="white"></path><path d="M150.312 47.2522H153.861V46.3789H150.312V44.3153H154.656V43.4197H149.311V50.178H154.667V49.2825H150.312V47.2522Z" fill="white"></path><path d="M166.369 46.6793C166.542 46.5402 166.681 46.3622 166.781 46.1509C166.881 45.9395 166.931 45.6781 166.931 45.3777C166.931 44.9327 166.837 44.5656 166.648 44.2763C166.458 43.9871 166.191 43.7757 165.841 43.6311C165.491 43.4865 165.073 43.4197 164.584 43.4197H161.107V50.178H162.109V47.4914H164.267C164.667 47.4914 164.984 47.5248 165.207 47.5859C165.429 47.6471 165.585 47.7584 165.674 47.9086C165.763 48.0587 165.808 48.2757 165.808 48.5427V50.178H166.82V48.5093C166.82 48.1199 166.748 47.8251 166.597 47.6304C166.447 47.4302 166.236 47.2967 165.958 47.2188C165.769 47.1688 165.546 47.1298 165.29 47.1076C165.452 47.0798 165.607 47.0464 165.758 47.0019C165.991 46.924 166.197 46.8183 166.369 46.6793ZM164.589 46.6181H162.109V44.3264H164.589C165.034 44.3264 165.368 44.421 165.596 44.6101C165.824 44.7992 165.936 45.0662 165.936 45.4111C165.936 45.7559 165.824 46.0619 165.596 46.2844C165.368 46.5068 165.034 46.6181 164.589 46.6181Z" fill="white"></path><path d="M61.2134 33.7023C59.6726 32.8401 58.4767 31.622 57.6312 30.0423C56.7802 28.4626 56.3574 26.6437 56.3574 24.58V17.3768C56.3574 15.3132 56.7802 13.4943 57.6312 11.9146C58.4767 10.3349 59.6781 9.1167 61.23 8.25453C62.7819 7.39237 64.5786 6.96407 66.6144 6.96407H70.9975C72.9555 6.96407 74.6798 7.35343 76.165 8.13772C77.6501 8.92201 78.8071 10.0289 79.6303 11.464C80.4535 12.8991 80.8652 14.5567 80.8652 16.4368H75.542C75.542 15.0295 75.1248 13.8948 74.2904 13.0326C73.4561 12.1704 72.3603 11.7421 71.0031 11.7421H66.62C65.1571 11.7421 63.9834 12.2817 63.099 13.3663C62.209 14.451 61.7696 15.8638 61.7696 17.616V24.3464C61.7696 26.093 62.209 27.5114 63.0823 28.5961C63.9556 29.6807 65.1126 30.2203 66.5477 30.2203H71.1644C72.4938 30.2203 73.5952 29.7363 74.474 28.7741C75.3473 27.8062 75.7867 26.6103 75.7867 25.1752V24.313H68.1941V19.6184H81.1099V25.1752C81.1099 27.0831 80.6927 28.7741 79.8584 30.2648C79.024 31.7499 77.8504 32.9124 76.3374 33.7468C74.8244 34.5811 73.1001 34.9983 71.17 34.9983H66.5532C64.5452 34.9983 62.7708 34.57 61.23 33.7079L61.2134 33.7023Z" fill="white"></path><path d="M165.807 34.036C164.539 33.3964 163.56 32.4897 162.871 31.3161C162.181 30.1424 161.836 28.7852 161.836 27.2444V22.6666C161.836 21.1258 162.186 19.763 162.893 18.5783C163.599 17.3935 164.584 16.4701 165.846 15.8193C167.115 15.1685 168.566 14.8404 170.213 14.8404H173.734C175.38 14.8404 176.832 15.1685 178.1 15.8193C179.368 16.4701 180.353 17.3935 181.054 18.5783C181.76 19.7686 182.111 21.1314 182.111 22.6666V27.2444C182.111 28.7852 181.76 30.1424 181.054 31.3161C180.347 32.4897 179.363 33.3964 178.1 34.036C176.832 34.6757 175.364 34.9928 173.695 34.9928H170.174C168.527 34.9928 167.076 34.6757 165.807 34.036ZM173.617 30.415C174.585 30.415 175.352 30.0812 175.925 29.4193C176.498 28.7518 176.788 27.8841 176.788 26.8161V23.017C176.788 21.9491 176.498 21.0813 175.925 20.4138C175.352 19.7464 174.596 19.4182 173.656 19.4182H170.291C169.351 19.4182 168.594 19.7519 168.021 20.4138C167.448 21.0813 167.159 21.9491 167.159 23.017V26.8161C167.159 27.8841 167.448 28.7518 168.021 29.4193C168.594 30.0868 169.34 30.415 170.252 30.415H173.617Z" fill="white"></path><path d="M187.184 40.8499C185.799 39.6596 185.031 38.1021 184.876 36.172H190.121C190.171 36.7449 190.41 37.2121 190.827 37.5626C191.244 37.913 191.767 38.091 192.396 38.091H195.917C196.723 38.091 197.385 37.7573 197.891 37.0953C198.398 36.4279 198.653 35.5601 198.653 34.4921V32.651C198.131 33.2239 197.497 33.68 196.757 34.0193C196.011 34.3587 195.299 34.5255 194.621 34.5255H191.917C189.542 34.5255 187.629 33.8191 186.183 32.4118C184.736 31.0046 184.008 29.1523 184.008 26.855V22.8613C184.008 21.2704 184.347 19.8687 185.026 18.6506C185.704 17.438 186.655 16.4979 187.885 15.8305C189.108 15.163 190.521 14.8348 192.112 14.8348H194.382C195.266 14.8348 196.134 15.0462 196.985 15.4633C197.83 15.8805 198.52 16.4312 199.037 17.1098V15.1518H203.971V34.4921C203.971 36.1108 203.637 37.5348 202.975 38.7585C202.308 39.9822 201.362 40.9389 200.139 41.6175C198.909 42.2961 197.502 42.6354 195.911 42.6354H192.39C190.304 42.6354 188.569 42.0403 187.184 40.8555V40.8499ZM194.971 30.0256C195.961 30.0256 196.796 29.614 197.474 28.7907C198.153 27.9675 198.542 26.894 198.648 25.559V22.8557C198.542 21.81 198.192 20.9756 197.591 20.3526C196.99 19.7241 196.234 19.4126 195.322 19.4126H192.579C191.612 19.4126 190.833 19.763 190.232 20.4695C189.631 21.1759 189.331 22.0992 189.331 23.2506V26.4601C189.331 27.5281 189.604 28.3902 190.154 29.041C190.705 29.6918 191.406 30.02 192.268 30.02H194.971V30.0256Z" fill="white"></path><path d="M207.477 15.1519H212.8V34.6868H207.477V15.1519Z" fill="white"></path><path d="M217.504 33.1183C216.069 31.8667 215.352 30.2203 215.352 28.1844H220.597C220.597 28.8909 220.836 29.4582 221.32 29.8865C221.804 30.3148 222.438 30.5318 223.217 30.5318H226.738C228.301 30.5318 229.085 30.1035 229.085 29.2413V28.5738C229.085 28.3124 228.952 28.0732 228.696 27.8507C228.434 27.6282 228.084 27.478 227.639 27.4002L220.869 26.2265C219.279 25.9651 218.016 25.3977 217.093 24.5244C216.164 23.6511 215.702 22.6277 215.702 21.454V20.1635C215.702 18.4948 216.386 17.1877 217.755 16.2476C219.123 15.3076 221.036 14.8404 223.489 14.8404H226.543C228.735 14.8404 230.503 15.4188 231.85 16.5814C233.196 17.7439 233.863 19.2736 233.863 21.1814H228.618C228.618 20.6085 228.429 20.1524 228.05 19.8131C227.672 19.4738 227.172 19.3069 226.543 19.3069H223.567C221.871 19.3069 221.025 19.6963 221.025 20.4806V21.1091C221.025 21.3984 221.136 21.6376 221.359 21.8322C221.581 22.0269 221.898 22.166 222.316 22.2439L229.441 23.5343C230.926 23.7958 232.128 24.352 233.04 25.1975C233.952 26.0485 234.408 27.0052 234.408 28.0732V29.4805C234.408 31.177 233.707 32.5231 232.311 33.5132C230.915 34.5033 229.057 34.9983 226.732 34.9983H223.211C220.836 34.9983 218.928 34.3698 217.499 33.1183H217.504Z" fill="white"></path><path d="M240.494 33.1183C239.426 32.0725 238.886 30.4539 238.886 28.2623V19.6907H235.443V15.1519H239.042V9.23907H244.21V15.1519H249.299V19.6907H244.21V28.0287C244.21 28.7574 244.349 29.2969 244.621 29.6362C244.894 29.9755 245.333 30.1424 245.934 30.1424H249.299V34.6813H245.539C243.242 34.6813 241.556 34.1584 240.488 33.1183H240.494Z" fill="white"></path><path d="M251.852 15.1519H257.175V34.6868H251.852V15.1519Z" fill="white"></path><path d="M263.856 34.0194C262.588 33.3686 261.609 32.4563 260.919 31.2771C260.23 30.1035 259.885 28.7462 259.885 27.2055V22.6277C259.885 21.0869 260.23 19.7297 260.919 18.556C261.609 17.3824 262.583 16.4701 263.834 15.8138C265.086 15.163 266.537 14.8348 268.178 14.8348H271.271C272.839 14.8348 274.219 15.1463 275.42 15.7748C276.622 16.4034 277.545 17.2822 278.202 18.4169C278.852 19.5517 279.181 20.8644 279.181 22.3495H273.896C273.896 21.4651 273.657 20.7531 273.173 20.2136C272.689 19.6796 272.055 19.4126 271.276 19.4126H268.262C267.349 19.4126 266.61 19.7464 266.048 20.4083C265.486 21.0758 265.208 21.9435 265.208 23.0115V26.8105C265.208 27.8785 265.497 28.7462 266.07 29.4137C266.643 30.0812 267.388 30.4094 268.301 30.4094H271.315C272.15 30.4094 272.823 30.109 273.329 29.5083C273.835 28.9075 274.091 28.1121 274.091 27.122H279.375C279.375 29.4972 278.635 31.3995 277.161 32.8346C275.687 34.2697 273.735 34.9872 271.31 34.9872H268.217C266.571 34.9872 265.119 34.659 263.851 34.0082L263.856 34.0194Z" fill="white"></path><path d="M283.09 33.1183C281.655 31.8667 280.938 30.2203 280.938 28.1844H286.183C286.183 28.8909 286.422 29.4582 286.906 29.8865C287.39 30.3148 288.024 30.5318 288.803 30.5318H292.324C293.887 30.5318 294.671 30.1035 294.671 29.2413V28.5738C294.671 28.3124 294.537 28.0732 294.282 27.8507C294.02 27.6282 293.67 27.478 293.225 27.4002L286.455 26.2265C284.865 25.9651 283.602 25.3977 282.679 24.5244C281.75 23.6511 281.288 22.6277 281.288 21.454V20.1635C281.288 18.4948 281.972 17.1877 283.34 16.2476C284.709 15.3076 286.622 14.8404 289.075 14.8404H292.129C294.321 14.8404 296.089 15.4188 297.435 16.5814C298.782 17.7439 299.449 19.2736 299.449 21.1814H294.204C294.204 20.6085 294.015 20.1524 293.636 19.8131C293.258 19.4738 292.758 19.3069 292.129 19.3069H289.153C287.457 19.3069 286.611 19.6963 286.611 20.4806V21.1091C286.611 21.3984 286.722 21.6376 286.945 21.8322C287.167 22.0269 287.484 22.166 287.902 22.2439L295.027 23.5343C296.512 23.7958 297.714 24.352 298.626 25.1975C299.538 26.0485 299.994 27.0052 299.994 28.0732V29.4805C299.994 31.177 299.293 32.5231 297.897 33.5132C296.501 34.5033 294.643 34.9983 292.318 34.9983H288.797C286.422 34.9983 284.514 34.3698 283.085 33.1183H283.09Z" fill="white"></path><path d="M161.013 34.7758H148.292L143.113 29.5973L143.124 7.23662H148.464V28.7685V30.1424H161.013V34.7758Z" fill="white"></path><path d="M212.8 9.23907H207.477V13.4275H212.8V9.23907Z" fill="white"></path><path d="M257.175 9.23907H251.852V13.4275H257.175V9.23907Z" fill="white"></path><path d="M102.387 8.41584C100.801 7.63155 98.9602 7.23662 96.8632 7.23662H83.7305V34.7647H97.0245C100.434 34.7647 103.015 33.8914 104.773 32.1504C106.531 30.4094 107.409 27.8451 107.409 24.4632V16.7538C107.409 14.8682 106.97 13.1995 106.091 11.7588C105.212 10.3182 103.983 9.20013 102.392 8.41584H102.387ZM101.975 24.224C101.975 26.1097 101.541 27.5392 100.679 28.5126C99.8112 29.4805 98.543 29.97 96.8632 29.97H89.1538V12.0314H96.7019C98.276 12.0314 99.5442 12.4819 100.518 13.3886C101.486 14.2952 101.975 15.4912 101.975 16.9874V24.224Z" fill="white"></path><path d="M129.643 20.1747V20.1357C130.427 19.6407 131.039 18.9954 131.473 18.2111C131.907 17.4269 132.123 16.5981 132.123 15.7359V13.7724C132.123 11.7811 131.367 10.1958 129.865 9.01657C128.358 7.83735 126.361 7.24774 123.869 7.24774H110.186V34.787L125.209 34.7758C127.857 34.7758 129.96 34.1417 131.523 32.8679C133.08 31.5942 133.864 29.8865 133.864 27.7339V25.6869C133.864 24.4577 133.475 23.3396 132.702 22.344C131.929 21.3483 130.911 20.6252 129.654 20.1802L129.643 20.1747ZM115.603 11.9535H123.663C124.581 11.9535 125.315 12.1704 125.866 12.6043C126.416 13.0382 126.689 13.6222 126.689 14.3564V15.6914C126.689 16.5814 126.428 17.2989 125.905 17.8329C125.382 18.3725 124.698 18.6394 123.858 18.6394H115.598V11.9535H115.603ZM128.425 27.4057C128.425 28.2456 128.107 28.8964 127.479 29.3525C126.85 29.8086 125.96 30.0423 124.803 30.0423H115.603V23.1227H125.393C126.311 23.1227 127.045 23.3563 127.596 23.8291C128.146 24.3019 128.419 24.9193 128.419 25.6758V27.4057H128.425Z" fill="white"></path></g><defs><clipPath id="clip0_1914_6978"><rect width="300" height="50.178" fill="white"></rect></clipPath></defs></svg> 